PathFileType	4	(X/Y/Z)	C:\Users\italobelli\Desktop\GitHub\PTbot_officialCBL\Personal_Results\SHRUG22_noisy2.trc
DataRate	CameraRate	NumFrames	NumMarkers	Units	OrigDataRate	OrigDataStartFrame	OrigNumFrames
110.888889	110.888889	38	9	m	110.888889	376	500
Frame#	Time		gu		centelbow		EpL		centpxt8		centijc7		ij		ts		aa		ai
			X1	Y1	Z1	X2	Y2	Z2	X3	Y3	Z3	X4	Y4	Z4	X5	Y5	Z5	X6	Y6	Z6	X7	Y7	Z7	X8	Y8	Z8	X9	Y9	Z9

376	3.3818	-0.11173	0.0067078	0.1537	-0.12745	-0.24328	0.19408	-0.1149	-0.23663	0.2227	-0.046816	-0.15316	-0.008669	-0.046816	0.031938	-0.008669	0	0	0	-0.13646	0.043124	0.032685	-0.13514	0.042605	0.15152	-0.16348	-0.066644	0.038603
377	3.3908	-0.11143	0.0060605	0.15376	-0.12763	-0.24405	0.19376	-0.11493	-0.23751	0.22236	-0.046816	-0.15316	-0.008669	-0.046816	0.031938	-0.008669	0	0	0	-0.13656	0.043018	0.032998	-0.13473	0.042036	0.15186	-0.16391	-0.06673	0.038549
378	3.3998	-0.11113	0.0054295	0.15383	-0.1278	-0.2448	0.19346	-0.11496	-0.23836	0.22204	-0.046816	-0.15316	-0.008669	-0.046816	0.031938	-0.008669	0	0	0	-0.13666	0.042913	0.033305	-0.13432	0.041482	0.15219	-0.16433	-0.066817	0.0385
379	3.4088	-0.11083	0.0048159	0.15389	-0.12797	-0.24553	0.19316	-0.11498	-0.23919	0.22172	-0.046816	-0.15316	-0.008669	-0.046816	0.031938	-0.008669	0	0	0	-0.13676	0.042809	0.033606	-0.13392	0.040944	0.15252	-0.16473	-0.066903	0.038457
380	3.4178	-0.11054	0.0042208	0.15396	-0.12813	-0.24624	0.19288	-0.11501	-0.23999	0.22142	-0.046816	-0.15316	-0.008669	-0.046816	0.031938	-0.008669	0	0	0	-0.13685	0.042705	0.033901	-0.13354	0.040423	0.15283	-0.16509	-0.066988	0.038419
381	3.4269	-0.11025	0.0036451	0.15402	-0.12828	-0.24693	0.19261	-0.11502	-0.24076	0.22113	-0.046816	-0.15316	-0.008669	-0.046816	0.031938	-0.008669	0	0	0	-0.13693	0.042603	0.03419	-0.13316	0.039919	0.15314	-0.16544	-0.067073	0.038387
382	3.4359	-0.10997	0.0030899	0.15408	-0.12843	-0.24759	0.19235	-0.11504	-0.24151	0.22085	-0.046816	-0.15316	-0.008669	-0.046816	0.031938	-0.008669	0	0	0	-0.13701	0.042502	0.034471	-0.13279	0.039434	0.15343	-0.16575	-0.067157	0.03836
383	3.4449	-0.1097	0.0025561	0.15415	-0.12857	-0.24823	0.1921	-0.11505	-0.24222	0.22058	-0.046816	-0.15316	-0.008669	-0.046816	0.031938	-0.008669	0	0	0	-0.13709	0.042403	0.034745	-0.13244	0.038969	0.15371	-0.16604	-0.067241	0.03834
384	3.4539	-0.10943	0.0020448	0.15421	-0.1287	-0.24884	0.19187	-0.11506	-0.2429	0.22033	-0.046816	-0.15316	-0.008669	-0.046816	0.031938	-0.008669	0	0	0	-0.13716	0.042305	0.035011	-0.1321	0.038524	0.15399	-0.1663	-0.067324	0.038325
385	3.4629	-0.10917	0.001557	0.15427	-0.12882	-0.24942	0.19165	-0.11506	-0.24355	0.2201	-0.046816	-0.15316	-0.008669	-0.046816	0.031938	-0.008669	0	0	0	-0.13723	0.042209	0.035269	-0.13178	0.038101	0.15425	-0.16652	-0.067405	0.038317
386	3.4719	-0.10892	0.0010937	0.15434	-0.12893	-0.24997	0.19144	-0.11506	-0.24417	0.21988	-0.046816	-0.15316	-0.008669	-0.046816	0.031938	-0.008669	0	0	0	-0.1373	0.042114	0.035518	-0.13146	0.0377	0.1545	-0.16671	-0.067486	0.038316
387	3.481	-0.10868	0.0006559	0.1544	-0.12903	-0.25049	0.19126	-0.11505	-0.24475	0.21967	-0.046816	-0.15316	-0.008669	-0.046816	0.031938	-0.008669	0	0	0	-0.13735	0.042022	0.035758	-0.13117	0.037322	0.15473	-0.16687	-0.067565	0.03832
388	3.49	-0.10844	0.00024463	0.15446	-0.12913	-0.25098	0.19108	-0.11504	-0.24529	0.21949	-0.046816	-0.15316	-0.008669	-0.046816	0.031938	-0.008669	0	0	0	-0.13741	0.041932	0.035989	-0.13088	0.036969	0.15496	-0.16699	-0.067644	0.038332
389	3.499	-0.10821	-0.00013911	0.15452	-0.12921	-0.25143	0.19093	-0.11502	-0.24579	0.21932	-0.046816	-0.15316	-0.008669	-0.046816	0.031938	-0.008669	0	0	0	-0.13746	0.041844	0.036209	-0.13062	0.036641	0.15517	-0.16707	-0.067721	0.038351
390	3.508	-0.10799	-0.00050464	0.15458	-0.12928	-0.25186	0.19078	-0.115	-0.24626	0.21916	-0.046816	-0.15316	-0.008669	-0.046816	0.031938	-0.008669	0	0	0	-0.1375	0.041756	0.036423	-0.13036	0.036329	0.15537	-0.16713	-0.067797	0.038377
391	3.517	-0.10777	-0.00086722	0.15465	-0.12934	-0.2523	0.19065	-0.11497	-0.24673	0.21902	-0.046816	-0.15316	-0.008669	-0.046816	0.031938	-0.008669	0	0	0	-0.13754	0.041668	0.036638	-0.13011	0.036021	0.15557	-0.16719	-0.067877	0.038411
392	3.5261	-0.10755	-0.0012269	0.15471	-0.12939	-0.25272	0.19052	-0.11494	-0.2472	0.21888	-0.046816	-0.15316	-0.008669	-0.046816	0.031938	-0.008669	0	0	0	-0.13759	0.041578	0.036851	-0.12985	0.035714	0.15577	-0.16725	-0.067958	0.038454
393	3.5351	-0.10732	-0.0015836	0.15478	-0.12943	-0.25315	0.19041	-0.11489	-0.24766	0.21874	-0.046816	-0.15316	-0.008669	-0.046816	0.031938	-0.008669	0	0	0	-0.13763	0.041486	0.037065	-0.1296	0.03541	0.15596	-0.16731	-0.068041	0.038504
394	3.5441	-0.1071	-0.0019372	0.15484	-0.12946	-0.25357	0.1903	-0.11485	-0.24812	0.21862	-0.046816	-0.15316	-0.008669	-0.046816	0.031938	-0.008669	0	0	0	-0.13767	0.041393	0.037278	-0.12935	0.035108	0.15616	-0.16736	-0.068126	0.038562
395	3.5531	-0.10687	-0.0022876	0.15491	-0.12948	-0.25398	0.1902	-0.11479	-0.24858	0.2185	-0.046816	-0.15316	-0.008669	-0.046816	0.031938	-0.008669	0	0	0	-0.13771	0.0413	0.037491	-0.1291	0.034809	0.15635	-0.16742	-0.068213	0.038627
396	3.5621	-0.10664	-0.0026349	0.15498	-0.12949	-0.2544	0.1901	-0.11474	-0.24903	0.21839	-0.046816	-0.15316	-0.008669	-0.046816	0.031938	-0.008669	0	0	0	-0.13775	0.041205	0.037703	-0.12885	0.034513	0.15654	-0.16747	-0.068302	0.038699
397	3.5711	-0.10642	-0.0029787	0.15505	-0.1295	-0.2548	0.19001	-0.11467	-0.24948	0.21828	-0.046816	-0.15316	-0.008669	-0.046816	0.031938	-0.008669	0	0	0	-0.13779	0.041109	0.037915	-0.1286	0.03422	0.15673	-0.16752	-0.068392	0.038778
398	3.5802	-0.10619	-0.0033191	0.15512	-0.12949	-0.25521	0.18993	-0.1146	-0.24992	0.21818	-0.046816	-0.15316	-0.008669	-0.046816	0.031938	-0.008669	0	0	0	-0.13783	0.041012	0.038126	-0.12835	0.033929	0.15691	-0.16757	-0.068484	0.038863
399	3.5892	-0.10596	-0.003656	0.15519	-0.12947	-0.25561	0.18986	-0.11453	-0.25036	0.21809	-0.046816	-0.15316	-0.008669	-0.046816	0.031938	-0.008669	0	0	0	-0.13787	0.040914	0.038336	-0.12811	0.033642	0.1571	-0.16763	-0.068577	0.038954
400	3.5982	-0.10574	-0.0039894	0.15526	-0.12945	-0.25601	0.18979	-0.11445	-0.25079	0.218	-0.046816	-0.15316	-0.008669	-0.046816	0.031938	-0.008669	0	0	0	-0.13791	0.040815	0.038545	-0.12786	0.033357	0.15728	-0.16768	-0.068671	0.039051
401	3.6072	-0.10551	-0.004319	0.15533	-0.12942	-0.2564	0.18972	-0.11437	-0.25122	0.21792	-0.046816	-0.15316	-0.008669	-0.046816	0.031938	-0.008669	0	0	0	-0.13795	0.040716	0.038753	-0.12762	0.033076	0.15746	-0.16772	-0.068767	0.039153
402	3.6162	-0.10528	-0.0046448	0.1554	-0.12939	-0.25679	0.18967	-0.11429	-0.25164	0.21784	-0.046816	-0.15316	-0.008669	-0.046816	0.031938	-0.008669	0	0	0	-0.13799	0.040616	0.03896	-0.12738	0.032798	0.15764	-0.16777	-0.068864	0.039261
403	3.6253	-0.10506	-0.0049667	0.15547	-0.12934	-0.25717	0.18961	-0.1142	-0.25206	0.21777	-0.046816	-0.15316	-0.008669	-0.046816	0.031938	-0.008669	0	0	0	-0.13802	0.040516	0.039166	-0.12714	0.032523	0.15781	-0.16782	-0.068962	0.039373
404	3.6343	-0.10483	-0.0052847	0.15554	-0.12929	-0.25755	0.18956	-0.11411	-0.25247	0.2177	-0.046816	-0.15316	-0.008669	-0.046816	0.031938	-0.008669	0	0	0	-0.13806	0.040415	0.03937	-0.12691	0.032252	0.15799	-0.16786	-0.06906	0.03949
405	3.6433	-0.1046	-0.0055986	0.15562	-0.12924	-0.25793	0.18952	-0.11401	-0.25288	0.21763	-0.046816	-0.15316	-0.008669	-0.046816	0.031938	-0.008669	0	0	0	-0.1381	0.040313	0.039573	-0.12667	0.031984	0.15816	-0.16791	-0.06916	0.039611
406	3.6523	-0.10438	-0.0059084	0.15569	-0.12918	-0.2583	0.18948	-0.11391	-0.25328	0.21757	-0.046816	-0.15316	-0.008669	-0.046816	0.031938	-0.008669	0	0	0	-0.13813	0.040212	0.039774	-0.12644	0.03172	0.15833	-0.16795	-0.06926	0.039737
407	3.6613	-0.10416	-0.0062139	0.15577	-0.12911	-0.25866	0.18944	-0.11381	-0.25368	0.21751	-0.046816	-0.15316	-0.008669	-0.046816	0.031938	-0.008669	0	0	0	-0.13816	0.04011	0.039974	-0.12621	0.031459	0.15849	-0.16799	-0.069361	0.039866
408	3.6703	-0.10393	-0.0065152	0.15584	-0.12904	-0.25902	0.18941	-0.11371	-0.25407	0.21746	-0.046816	-0.15316	-0.008669	-0.046816	0.031938	-0.008669	0	0	0	-0.1382	0.040008	0.040173	-0.12598	0.031203	0.15866	-0.16804	-0.069463	0.039998
409	3.6794	-0.10371	-0.006812	0.15591	-0.12897	-0.25938	0.18938	-0.1136	-0.25446	0.21741	-0.046816	-0.15316	-0.008669	-0.046816	0.031938	-0.008669	0	0	0	-0.13823	0.039906	0.040369	-0.12575	0.03095	0.15882	-0.16808	-0.069564	0.040134
410	3.6884	-0.10349	-0.0071043	0.15599	-0.12889	-0.25973	0.18935	-0.11349	-0.25484	0.21736	-0.046816	-0.15316	-0.008669	-0.046816	0.031938	-0.008669	0	0	0	-0.13827	0.039803	0.040564	-0.12553	0.030701	0.15898	-0.16812	-0.069666	0.040273
411	3.6974	-0.10328	-0.007392	0.15606	-0.12881	-0.26007	0.18933	-0.11338	-0.25521	0.21731	-0.046816	-0.15316	-0.008669	-0.046816	0.031938	-0.008669	0	0	0	-0.1383	0.039701	0.040757	-0.12531	0.030456	0.15914	-0.16816	-0.069769	0.040414
412	3.7064	-0.10306	-0.0076751	0.15614	-0.12872	-0.26041	0.18931	-0.11327	-0.25558	0.21727	-0.046816	-0.15316	-0.008669	-0.046816	0.031938	-0.008669	0	0	0	-0.13833	0.039599	0.040947	-0.12509	0.030215	0.15929	-0.16819	-0.069871	0.040557
413	3.7154	-0.10284	-0.0079534	0.15621	-0.12863	-0.26074	0.18929	-0.11316	-0.25594	0.21722	-0.046816	-0.15316	-0.008669	-0.046816	0.031938	-0.008669	0	0	0	-0.13836	0.039498	0.041136	-0.12488	0.029978	0.15944	-0.16823	-0.069974	0.040703
